# xmcd CD database file
#
# Track frame offsets:
#	150
#	34080
#	65837
#	109080
#	129621
#	175768
#	209705
#
# Disc length: 3158 seconds
#
# Revision: 0
# Processed by: cddbd v1.5.2PL0 Copyright (c) Steve Scherf et al.
# Submitted via: CDex 1.70beta2
#
DISCID=690c5407
DTITLE=Andy Scherrer - Serenity (A Tribute to Joe Henderson
DYEAR=2003
DGENRE=Jazz
TTITLE0=Shade of jade
TTITLE1=Maxeline
TTITLE2=If you're not part of the solution, you're part of the problem
TTITLE3=Serenity
TTITLE4=Gazelle
TTITLE5=Blood count
TTITLE6=Blues for joe
EXTD=YEAR: 2003
EXTT0=
EXTT1=
EXTT2=
EXTT3=
EXTT4=
EXTT5=
EXTT6=
PLAYORDER=
